<svg width="22" height="16" viewBox="0 0 22 16" fill="none" xmlns="http://www.w3.org/2000/svg">
<path d="M12.4999 6L16.4999 10M16.4999 6L12.4999 10M18.5949 14.5H8.2979C7.7763 14.4999 7.27536 14.2961 6.9019 13.932L1.5519 8.716C1.45635 8.62284 1.38041 8.51149 1.32856 8.38852C1.27671 8.26555 1.25 8.13345 1.25 8C1.25 7.86655 1.27671 7.73445 1.32856 7.61148C1.38041 7.48851 1.45635 7.37716 1.5519 7.284L6.9019 2.068C7.27536 1.70387 7.7763 1.50005 8.2979 1.5H18.5949C19.5449 1.5 20.8179 2.041 20.8179 3.125V12.875C20.8179 13.959 19.5449 14.5 18.5949 14.5Z" stroke="white" stroke-width="1.5" stroke-linecap="round" stroke-linejoin="round"/>
</svg>
