<svg width="17" height="18" viewBox="0 0 17 18" fill="none" xmlns="http://www.w3.org/2000/svg">
<mask id="path-1-outside-1_4001_1591" maskUnits="userSpaceOnUse" x="0" y="0.5" width="17" height="17" fill="black">
<rect fill="white" y="0.5" width="17" height="17"/>
<path d="M10.5858 3.91421L3.39171 11.1083C3.19706 11.3029 3.09974 11.4003 3.03276 11.5186C2.96579 11.6368 2.93241 11.7704 2.86564 12.0374L2.20211 14.6915C2.11186 15.0526 2.06673 15.2331 2.16682 15.3332C2.2669 15.4333 2.44742 15.3881 2.80844 15.2979L2.80845 15.2979L5.46257 14.6344C5.72963 14.5676 5.86316 14.5342 5.98145 14.4672C6.09974 14.4003 6.19706 14.3029 6.39171 14.1083L13.5858 6.91421L13.5858 6.91421C14.2525 6.24755 14.5858 5.91421 14.5858 5.5C14.5858 5.08579 14.2525 4.75245 13.5858 4.08579L13.4142 3.91421C12.7475 3.24755 12.4142 2.91421 12 2.91421C11.5858 2.91421 11.2525 3.24755 10.5858 3.91421Z"/>
</mask>
<path d="M3.39171 11.1083L4.80593 12.5225L4.80593 12.5225L3.39171 11.1083ZM10.5858 3.91421L9.17157 2.5L9.17157 2.5L10.5858 3.91421ZM13.4142 3.91421L12 5.32843L12 5.32843L13.4142 3.91421ZM13.5858 4.08579L15 2.67157L15 2.67157L13.5858 4.08579ZM13.5858 6.91421L15 8.32843L13.5858 6.91421ZM6.39171 14.1083L4.9775 12.6941L4.9775 12.6941L6.39171 14.1083ZM2.86564 12.0374L4.80593 12.5225L4.80593 12.5225L2.86564 12.0374ZM2.20211 14.6915L0.261828 14.2065H0.261828L2.20211 14.6915ZM2.80845 15.2979L2.32338 13.3576L2.23624 13.3794L2.15141 13.4089L2.80845 15.2979ZM5.46257 14.6344L4.97751 12.6941L4.9775 12.6941L5.46257 14.6344ZM2.16682 15.3332L3.58103 13.919L3.58103 13.919L2.16682 15.3332ZM2.80844 15.2979L3.29351 17.2382L3.38065 17.2164L3.46549 17.1869L2.80844 15.2979ZM5.98145 14.4672L4.99605 12.7268L4.99605 12.7268L5.98145 14.4672ZM13.5858 6.91421L15 8.32842L15 8.32842L13.5858 6.91421ZM3.03276 11.5186L1.29236 10.5332L1.29236 10.5332L3.03276 11.5186ZM4.80593 12.5225L12 5.32843L9.17157 2.5L1.9775 9.69407L4.80593 12.5225ZM12 5.32843L12.1716 5.5L15 2.67157L14.8284 2.5L12 5.32843ZM12.1716 5.5L4.9775 12.6941L7.80593 15.5225L15 8.32843L12.1716 5.5ZM0.925358 11.5524L0.261828 14.2065L4.1424 15.1766L4.80593 12.5225L0.925358 11.5524ZM3.29352 17.2382L5.94764 16.5746L4.9775 12.6941L2.32338 13.3576L3.29352 17.2382ZM0.261828 14.2065C0.233004 14.3218 0.150553 14.6296 0.122586 14.9155C0.0921993 15.2261 0.065091 16.0599 0.752603 16.7474L3.58103 13.919C3.84671 14.1847 3.99914 14.5005 4.06644 14.7928C4.12513 15.0478 4.10965 15.2429 4.10358 15.3049C4.09699 15.3724 4.08792 15.404 4.097 15.3631C4.10537 15.3253 4.11788 15.2747 4.1424 15.1766L0.261828 14.2065ZM2.15141 13.4089L2.1514 13.4089L3.46549 17.1869L3.46549 17.1869L2.15141 13.4089ZM2.32338 13.3576C2.22531 13.3821 2.17467 13.3946 2.13694 13.403C2.09595 13.4121 2.12762 13.403 2.19506 13.3964C2.25712 13.3903 2.45223 13.3749 2.70717 13.4336C2.99955 13.5009 3.31535 13.6533 3.58103 13.919L0.752598 16.7474C1.44011 17.4349 2.27387 17.4078 2.58449 17.3774C2.87039 17.3494 3.17822 17.267 3.29351 17.2382L2.32338 13.3576ZM4.9775 12.6941C4.95279 12.7188 4.9317 12.7399 4.91214 12.7593C4.89271 12.7787 4.87671 12.7945 4.86293 12.808C4.84916 12.8215 4.83911 12.8312 4.83172 12.8382C4.82812 12.8416 4.82545 12.8441 4.8236 12.8458C4.82176 12.8475 4.8209 12.8483 4.82092 12.8482C4.82094 12.8482 4.82198 12.8473 4.82395 12.8456C4.82592 12.8439 4.82893 12.8413 4.83291 12.838C4.84086 12.8314 4.85292 12.8216 4.86866 12.8098C4.88455 12.7979 4.90362 12.7843 4.92564 12.7699C4.94776 12.7553 4.97131 12.7408 4.99605 12.7268L6.96684 16.2076C7.37599 15.976 7.68636 15.6421 7.80593 15.5225L4.9775 12.6941ZM5.94764 16.5746C6.11169 16.5336 6.55771 16.4393 6.96685 16.2076L4.99605 12.7268C5.02079 12.7128 5.0453 12.7001 5.06917 12.6886C5.09292 12.6772 5.11438 12.6678 5.13277 12.6603C5.15098 12.6529 5.16553 12.6475 5.17529 12.6441C5.18017 12.6424 5.18394 12.6412 5.18642 12.6404C5.1889 12.6395 5.19024 12.6391 5.19026 12.6391C5.19028 12.6391 5.18918 12.6395 5.18677 12.6402C5.18435 12.6409 5.18084 12.6419 5.17606 12.6432C5.16625 12.6459 5.15278 12.6496 5.13414 12.6544C5.11548 12.6593 5.09368 12.6649 5.0671 12.6716C5.04034 12.6784 5.0114 12.6856 4.97751 12.6941L5.94764 16.5746ZM12.1716 5.5C12.3435 5.67192 12.4698 5.79842 12.5738 5.90785C12.6786 6.018 12.7263 6.07518 12.7457 6.10073C12.7644 6.12524 12.7226 6.07638 12.6774 5.96782C12.6254 5.84332 12.5858 5.68102 12.5858 5.5H16.5858C16.5858 4.67978 16.2282 4.07075 15.9258 3.6744C15.6586 3.32421 15.2934 2.96493 15 2.67157L12.1716 5.5ZM15 8.32843L15 8.32842L12.1716 5.49999L12.1716 5.5L15 8.32843ZM15 8.32842C15.2934 8.03507 15.6586 7.67579 15.9258 7.3256C16.2282 6.92925 16.5858 6.32022 16.5858 5.5H12.5858C12.5858 5.31898 12.6254 5.15668 12.6774 5.03218C12.7226 4.92362 12.7644 4.87476 12.7457 4.89927C12.7263 4.92482 12.6786 4.982 12.5738 5.09215C12.4698 5.20157 12.3435 5.32807 12.1716 5.5L15 8.32842ZM12 5.32843C12.1719 5.1565 12.2984 5.03019 12.4078 4.92615C12.518 4.82142 12.5752 4.77375 12.6007 4.75426C12.6252 4.73555 12.5764 4.77736 12.4678 4.82264C12.3433 4.87455 12.181 4.91421 12 4.91421V0.914214C11.1798 0.914214 10.5707 1.27177 10.1744 1.57417C9.82421 1.84136 9.46493 2.20664 9.17157 2.5L12 5.32843ZM14.8284 2.5C14.5351 2.20665 14.1758 1.84136 13.8256 1.57417C13.4293 1.27177 12.8202 0.914214 12 0.914214V4.91421C11.819 4.91421 11.6567 4.87455 11.5322 4.82264C11.4236 4.77736 11.3748 4.73555 11.3993 4.75426C11.4248 4.77375 11.482 4.82142 11.5922 4.92615C11.7016 5.03019 11.8281 5.1565 12 5.32843L14.8284 2.5ZM1.9775 9.69407C1.85793 9.81364 1.52401 10.124 1.29236 10.5332L4.77316 12.5039C4.75915 12.5287 4.7447 12.5522 4.73014 12.5744C4.71565 12.5964 4.70207 12.6155 4.69016 12.6313C4.67837 12.6471 4.66863 12.6591 4.66202 12.6671C4.65871 12.6711 4.65613 12.6741 4.65442 12.6761C4.65271 12.678 4.65178 12.6791 4.65176 12.6791C4.65174 12.6791 4.65252 12.6782 4.65422 12.6764C4.65593 12.6745 4.65842 12.6719 4.66184 12.6683C4.66884 12.6609 4.67852 12.6508 4.692 12.6371C4.7055 12.6233 4.72132 12.6073 4.74066 12.5879C4.76013 12.5683 4.78122 12.5472 4.80593 12.5225L1.9775 9.69407ZM4.80593 12.5225C4.8144 12.4886 4.82164 12.4597 4.82839 12.4329C4.8351 12.4063 4.84068 12.3845 4.84556 12.3659C4.85043 12.3472 4.85407 12.3337 4.8568 12.3239C4.85813 12.3192 4.85914 12.3157 4.85984 12.3132C4.86054 12.3108 4.86088 12.3097 4.86088 12.3097C4.86087 12.3098 4.86046 12.3111 4.85965 12.3136C4.85884 12.3161 4.85758 12.3198 4.85588 12.3247C4.85246 12.3345 4.84713 12.349 4.8397 12.3672C4.8322 12.3856 4.82284 12.4071 4.81141 12.4308C4.79993 12.4547 4.78717 12.4792 4.77316 12.5039L1.29236 10.5332C1.06071 10.9423 0.966371 11.3883 0.925358 11.5524L4.80593 12.5225Z" fill="white" mask="url(#path-1-outside-1_4001_1591)"/>
<path d="M9.5 4L12.5 2L15.5 5L13.5 8L9.5 4Z" fill="white"/>
</svg>
