<svg width="20" height="15" viewBox="0 0 20 15" fill="none" xmlns="http://www.w3.org/2000/svg">
<path d="M8 6L12 10L8 14" stroke="white" stroke-width="2"/>
<path d="M7.67063 1.15333C5.56156 1.4359 3.72985 2.09219 2.51677 2.99993C1.3037 3.90768 0.791996 5.00497 1.077 6.08737C1.362 7.16976 2.42426 8.16345 4.06589 8.88328C5.70751 9.60311 7.81652 10 10 10" stroke="white" stroke-width="2" stroke-linecap="round"/>
<path d="M17.7942 7.75C18.3852 7.23822 18.7687 6.67326 18.923 6.08737C19.0773 5.50148 18.9992 4.90613 18.6933 4.33531C18.3874 3.7645 17.8597 3.2294 17.1402 2.76057C16.4207 2.29174 15.5236 1.89836 14.5 1.60289" stroke="white" stroke-width="2" stroke-linecap="round"/>
</svg>
