<svg width="29" height="24" viewBox="0 0 29 24" fill="none" xmlns="http://www.w3.org/2000/svg">
<path d="M2.5445 14.5742C1.59383 12.9897 1.59383 11.0103 2.5445 9.42582V9.42582C2.83461 8.94232 3.31522 8.60362 3.86813 8.49304L6.1255 8.04157C6.25999 8.01467 6.38122 7.94254 6.46902 7.83718L10.1708 3.39498C11.3534 1.97592 11.9447 1.26638 12.4723 1.45742C13 1.64846 13 2.57207 13 4.41928L13 19.5807C13 21.4279 13 22.3515 12.4723 22.5426C11.9447 22.7336 11.3534 22.0241 10.1708 20.605L6.46902 16.1628C6.38122 16.0575 6.25999 15.9853 6.1255 15.9584L3.86813 15.507C3.31522 15.3964 2.83461 15.0577 2.5445 14.5742V14.5742Z" stroke="white" stroke-width="2"/>
<path d="M19.0474 7.28587C20.2912 8.52968 20.993 10.2147 21 11.9737C21.0069 13.7327 20.3184 15.4231 19.0844 16.6767" stroke="white" stroke-width="2" stroke-linecap="round"/>
<path d="M24.5425 4.45745C26.5326 6.44754 27.6555 9.1435 27.6666 11.9579C27.6777 14.7723 26.576 17.477 24.6017 19.4827" stroke="white" stroke-width="2" stroke-linecap="round"/>
</svg>
