<svg width="21" height="14" viewBox="0 0 21 14" fill="none" xmlns="http://www.w3.org/2000/svg">
<path d="M15 0C15.5523 2.59981e-08 16 0.447715 16 1V13C16 13.5523 15.5523 14 15 14C14.4477 14 14 13.5523 14 13L14 1C14 0.447716 14.4477 -2.59981e-08 15 0Z" fill="white"/>
<path d="M12 5C12.5523 5 13 5.44772 13 6V9C13 9.55228 12.5523 10 12 10H9C8.44772 10 8 9.55228 8 9V6C8 5.44771 8.44772 5 9 5H12Z" fill="white"/>
<path d="M18 2C18.5523 2 19 2.44772 19 3V11C19 11.5523 18.5523 12 18 12C17.4477 12 17 11.5523 17 11V3C17 2.44772 17.4477 2 18 2Z" fill="white"/>
<path d="M20 5C20.5523 5 21 5.44772 21 6V8C21 8.55228 20.5523 9 20 9H19V5H20Z" fill="white"/>
<path d="M1 9C0.447715 9 1.11564e-07 8.55228 8.74227e-08 8L0 6C-2.41411e-08 5.44772 0.447715 5 1 5H2L2 9H1Z" fill="white"/>
<path d="M3 2C3.55228 2 4 2.44772 4 3L4 11C4 11.5523 3.55228 12 3 12C2.44772 12 2 11.5523 2 11L2 3C2 2.44772 2.44772 2 3 2Z" fill="white"/>
<path d="M6 0C6.55229 2.59981e-08 7 0.447715 7 1L7 13C7 13.5523 6.55228 14 6 14C5.44772 14 5 13.5523 5 13L5 1C5 0.447716 5.44772 -2.59981e-08 6 0Z" fill="white"/>
</svg>
